<svg width="71" height="57" viewBox="0 0 71 57" fill="none" xmlns="http://www.w3.org/2000/svg">
<path d="M59.8825 21.6598C58.1585 17.5627 55.3821 13.9853 51.83 11.284C48.2778 8.58277 44.074 6.85207 39.6374 6.26438C35.2008 5.6767 30.6864 6.25255 26.5441 7.93455C22.4017 9.61656 18.7762 12.346 16.0287 15.8508C13.2812 19.3556 11.5077 23.5134 10.885 27.9099C10.2622 32.3064 10.812 36.7879 12.4795 40.908C14.147 45.028 16.874 48.6427 20.3887 51.3917C23.9034 54.1407 28.083 55.9281 32.5111 56.5758C31.9311 54.5026 31.3411 52.2113 30.8211 49.781C32.3339 50.7544 33.9262 51.6005 35.5813 52.3105C35.5813 52.3105 35.7013 54.453 35.8613 56.8436C37.6496 56.8742 39.4362 56.7179 41.1916 56.3774C41.1462 56.1281 41.1462 55.8728 41.1916 55.6235C41.4816 53.7686 42.2816 50.4258 42.4416 48.2733C43.595 47.2033 44.5734 45.9617 45.3418 44.5932L45.2818 45.0297C44.7317 49.2553 43.5817 53.7686 42.8817 55.0184C42.655 55.4321 42.3761 55.8155 42.0516 56.1591C45.6716 55.3168 49.0636 53.7037 51.9924 51.4316C54.9212 49.1594 57.3168 46.2827 59.013 43.0008C60.7093 39.7188 61.6656 36.1103 61.8158 32.4252C61.9659 28.7402 61.3062 25.0668 59.8825 21.6598ZM58.4124 25.4192C57.9724 25.8458 57.0624 26.1334 56.9123 24.8439C56.7623 23.5544 56.7223 22.6517 56.7223 22.6517C56.7223 22.6517 54.7922 19.2494 54.0722 19.2098C53.3522 19.1701 48.2419 22.6518 46.8918 24.1694C45.7218 25.449 45.4918 25.3597 45.4918 27.6114C45.4918 29.3076 45.7118 35.7155 45.5918 40.6156L37.4414 42.7681C34.8796 43.4973 32.2744 44.0672 29.641 44.4742L28.6409 38.6913H28.5009L25.9308 25.6275C25.9308 25.6275 22.1206 24.1992 20.7206 23.8123C20.0632 23.527 19.3372 23.4343 18.6284 23.545C17.9196 23.6558 17.2575 23.9653 16.7204 24.4372C16.1723 24.9132 15.7342 25.5006 15.4356 26.1596C15.1371 26.8186 14.9852 27.5337 14.9903 28.2562C15.2017 28.7172 15.3626 29.1994 15.4703 29.6945C15.5203 30.1706 14.2702 30.121 13.4702 30.121C12.6702 30.121 12.5502 28.6926 13.1802 27.0162C13.6717 25.7272 14.2809 24.4855 15.0003 23.3064C15.5413 22.2532 16.2392 21.2868 17.0704 20.4397C17.0704 20.4397 17.2104 20.1025 18.3204 20.2017C19.4305 20.3009 25.6008 20.6282 25.6008 20.6282L25.6508 18.3765C32.3575 17.458 39.1216 17.0138 45.8918 17.0473C45.8918 17.6524 45.8918 18.2575 45.8918 18.8626C48.4562 17.7018 51.2175 17.0289 54.0322 16.8787C54.1828 16.8749 54.332 16.9083 54.4664 16.9758C54.6008 17.0433 54.7162 17.1429 54.8022 17.2656C55.1423 17.6921 57.2124 20.2414 57.4524 20.6084C58.1246 21.5613 58.7359 22.5552 59.2825 23.5842C59.0951 24.2357 58.8012 24.8523 58.4124 25.4093V25.4192Z" fill="#FDC305"/>
<path d="M56.4628 19.3486C56.9329 19.9438 57.3429 20.4695 57.4629 20.6282C58.1351 21.5812 58.7464 22.575 59.293 23.604C59.1027 24.2341 58.8124 24.8302 58.4329 25.3696C57.9929 25.7962 57.0829 26.0838 56.9329 24.7943C56.7829 23.5048 56.7229 22.6518 56.7229 22.6518C56.7229 22.6518 54.7928 19.2494 54.0727 19.2098C53.3527 19.1701 48.2424 22.6518 46.8924 24.1694C45.7223 25.449 45.4923 25.3597 45.4923 27.6114C45.4923 29.0993 45.6623 34.2077 45.6223 38.7508C47.4324 38.9492 50.0925 39.4451 50.8926 40.6156C50.8926 40.6156 50.6026 33.4935 58.703 37.2232C58.703 37.2232 58.983 27.5122 70.1635 30.002C66.3628 25.5758 61.7035 21.9529 56.4628 19.3486Z" fill="#F06351"/>
<path d="M45.9323 17.0473C45.9729 11.5508 45.5043 6.0622 44.5322 0.650742C44.5322 0.650742 44.3822 -0.638767 43.6622 0.412679C43.068 1.66967 42.6636 3.00658 42.4621 4.3804C38.1871 4.10833 33.896 4.22121 29.6415 4.71766C28.8214 1.98985 27.4214 0.749935 26.7513 1.07727C26.0813 1.40461 26.0013 4.3308 26.0013 4.3308L25.6713 18.3765C32.3846 17.4571 39.1554 17.0129 45.9323 17.0473Z" fill="#F06351"/>
<path d="M45.3515 44.5932C45.4815 43.5319 45.5515 42.1233 45.5915 40.566L37.4415 42.7185C34.8809 43.4645 32.2758 44.0509 29.6415 44.4742L30.7515 49.4339C30.7515 49.543 30.7515 49.6521 30.8215 49.7612C32.3342 50.7346 33.9265 51.5807 35.5815 52.2906C38.0002 51.1438 40.3038 49.7721 42.4615 48.194V48.2535C43.6096 47.1887 44.5845 45.954 45.3515 44.5932Z" fill="#E55645"/>
<path d="M32.0016 13.9426C31.9516 13.8434 33.0016 14.6171 33.4116 14.8552C33.8216 15.0932 34.0216 15.2718 34.0216 15.4404C34.0216 15.6091 33.7616 15.7777 33.4016 15.7777C33.0416 15.7777 32.4816 15.6586 32.4016 15.5198C32.3216 15.3809 33.0016 15.5198 33.3416 15.5198H33.6316C33.0159 15.073 32.4672 14.542 32.0016 13.9426Z" fill="black"/>
<path d="M39.502 14.0517C39.502 14.0517 38.502 15.3214 38.412 15.3809C38.322 15.4404 38.2419 15.7182 38.6019 15.6686C39.0152 15.6074 39.4231 15.5145 39.8219 15.3908C39.9319 15.3313 39.892 15.1924 39.702 15.2123C39.512 15.2321 39.022 15.2619 38.702 15.3214L39.5519 14.0616C39.5519 14.0616 39.582 13.9426 39.502 14.0517Z" fill="black"/>
<path d="M36.3617 20.1124C36.8253 19.9098 37.2084 19.5612 37.4517 19.1205C37.7317 18.4658 37.4517 18.2178 37.0117 18.1285C36.4064 18.019 35.7817 18.1394 35.2617 18.4658C34.8717 18.8328 34.9217 19.1899 35.2617 19.4577C35.5995 19.7205 35.9691 19.9404 36.3617 20.1124Z" fill="black"/>
<path d="M36.0016 21.3622C35.8868 21.5872 35.7308 21.789 35.5416 21.9574C35.2568 22.1847 34.9067 22.3166 34.5416 22.3343C33.991 22.3879 33.4405 22.2319 33.0016 21.8979C32.8 21.7809 32.6206 21.6299 32.4716 21.4515C32.3715 21.3435 32.2486 21.2588 32.1116 21.2035C32.1116 21.2035 32.8616 25.2804 34.6816 25.935C36.5016 26.5897 36.8416 25.1812 36.8916 24.8042C36.9525 23.6753 36.6666 22.5546 36.0716 21.5904C36.0716 21.2928 36.0516 21.4912 36.0016 21.3622Z" fill="#F06351"/>
<path d="M34.3015 22.493C33.8335 22.4263 33.384 22.2662 32.9801 22.0224C32.5763 21.7786 32.2263 21.4562 31.9515 21.0746C31.9269 21.0473 31.9133 21.012 31.9133 20.9754C31.9133 20.9388 31.9269 20.9035 31.9515 20.8762C31.9646 20.863 31.9801 20.8525 31.9973 20.8454C32.0145 20.8382 32.0329 20.8345 32.0515 20.8345C32.0702 20.8345 32.0886 20.8382 32.1058 20.8454C32.1229 20.8525 32.1385 20.863 32.1515 20.8762C32.399 21.2206 32.7129 21.5128 33.0751 21.7358C33.4374 21.9589 33.8406 22.1084 34.2615 22.1756C34.5945 22.1508 34.9168 22.048 35.2019 21.8755C35.487 21.7031 35.7268 21.466 35.9015 21.1837L36.0415 20.9952L36.1415 21.2135C36.1415 21.2135 36.5215 21.9673 37.1415 22.007C37.7615 22.0467 38.2015 21.5904 38.7715 20.7274C38.7927 20.6958 38.8257 20.6739 38.8632 20.6665C38.9007 20.659 38.9397 20.6667 38.9715 20.6877C39.0034 20.7088 39.0254 20.7415 39.0329 20.7787C39.0404 20.8159 39.0327 20.8545 39.0115 20.8861C38.3449 21.8582 37.7149 22.3244 37.1215 22.2847C36.8922 22.2546 36.6726 22.1739 36.4788 22.0486C36.285 21.9233 36.1219 21.7566 36.0015 21.5606C35.8059 21.8316 35.5518 22.056 35.2577 22.2173C34.9636 22.3786 34.6369 22.4728 34.3015 22.493Z" fill="black"/>
<path d="M36.2616 35.8444C38.3327 35.8444 40.0116 34.179 40.0116 32.1247C40.0116 30.0703 38.3327 28.4049 36.2616 28.4049C34.1905 28.4049 32.5116 30.0703 32.5116 32.1247C32.5116 34.179 34.1905 35.8444 36.2616 35.8444Z" fill="#FDC305"/>
<path d="M41.2316 29.0993L38.1016 30.3987L39.2516 24.8142L31.7516 34.4954L34.8816 33.196L33.7316 38.7905L41.2316 29.0993ZM33.8416 32.8984L38.0016 27.5321L37.1916 31.4998L39.1916 30.6864L35.0016 36.0627L35.8116 32.0949L33.8416 32.8984Z" fill="#111111"/>
<path d="M32.4415 31.4403C33.0601 31.4403 33.5615 30.9429 33.5615 30.3293C33.5615 29.7157 33.0601 29.2183 32.4415 29.2183C31.823 29.2183 31.3215 29.7157 31.3215 30.3293C31.3215 30.9429 31.823 31.4403 32.4415 31.4403Z" fill="#111111"/>
<path d="M38.9619 35.4675C39.3982 35.4675 39.7519 35.1166 39.7519 34.6839C39.7519 34.2511 39.3982 33.9002 38.9619 33.9002C38.5256 33.9002 38.1719 34.2511 38.1719 34.6839C38.1719 35.1166 38.5256 35.4675 38.9619 35.4675Z" fill="#111111"/>
<path d="M39.9219 33.315C40.1152 33.315 40.2719 33.1596 40.2719 32.9678C40.2719 32.7761 40.1152 32.6207 39.9219 32.6207C39.7286 32.6207 39.5719 32.7761 39.5719 32.9678C39.5719 33.1596 39.7286 33.315 39.9219 33.315Z" fill="#111111"/>
<path d="M45.8822 18.8427C44.077 20.4569 42.3768 22.183 40.792 24.0107C39.2133 25.8252 37.4318 27.4558 35.4817 28.8712C35.2617 28.3454 33.8516 27.3634 33.8516 27.3634C33.8516 27.3634 30.7115 25.2308 28.6514 23.5544C27.5377 22.6344 26.4886 21.6402 25.5112 20.5786L23.5111 20.4695C26.3983 24.6526 30.628 27.7432 35.5117 29.2382C36.3717 29.0993 38.7919 27.3833 40.602 25.9846C42.7434 24.1782 44.7489 22.2189 46.6022 20.1223C47.1004 19.5351 47.4867 18.8629 47.7423 18.1385C46.6023 18.5154 45.8822 18.8427 45.8822 18.8427Z" fill="#F06351"/>
<path d="M25.9313 25.6275C25.9313 25.6275 22.1211 24.1992 20.721 23.8123C20.0636 23.527 19.3377 23.4343 18.6289 23.545C17.9201 23.6558 17.258 23.9653 16.7208 24.4372C16.1728 24.9132 15.7346 25.5006 15.4361 26.1596C15.1375 26.8186 14.9856 27.5337 14.9907 28.2562C15.2021 28.7172 15.3631 29.1994 15.4708 29.6945C15.5208 30.1706 14.2707 30.121 13.4707 30.121C12.6706 30.121 12.5506 28.6926 13.1807 27.0162C13.6722 25.7272 14.2814 24.4855 15.0007 23.3064C9.55047 26.1235 0 32.6306 0 32.6306C2.73182 32.4672 5.47292 32.5468 8.1904 32.8686C13.4407 33.3944 13.1907 37.5009 13.1907 37.5009C15.0373 36.996 16.9192 36.628 18.8209 36.3999C20.941 36.261 21.091 38.5028 21.091 38.5028L21.6211 42.3316C22.4259 41.468 23.3134 40.684 24.2712 39.9907C25.5057 39.0105 27.0776 38.5477 28.6514 38.7012L25.9313 25.6275Z" fill="#F06351"/>
</svg>
